<?xml version="1.0" encoding="UTF-8"?>
<svg xmlns="http://www.w3.org/2000/svg" xmlns:xlink="http://www.w3.org/1999/xlink" width="1000px" height="700px" viewBox="0 0 1090 700" version="1.1">
<g id="surface1">
<path style=" stroke:none;fill-rule:nonzero;fill:rgb(44.313726%,43.921569%,45.09804%);fill-opacity:1;" d="M 0 447.273438 L 32.1875 447.273438 L 32.1875 640.15625 L 0 640.15625 Z M 0 447.273438 "/>
<path style=" stroke:none;fill-rule:nonzero;fill:rgb(44.313726%,43.921569%,45.09804%);fill-opacity:1;" d="M 64.832031 488.742188 L 95.484375 488.742188 L 95.484375 500.820312 C 103.214844 494.90625 117.453125 486.25 137.253906 486.25 C 174.089844 486.25 186.769531 509.203125 186.769531 539.851562 L 186.769531 640.15625 L 155.519531 640.15625 L 155.519531 544.796875 C 155.519531 523.714844 149.324219 511.359375 126.71875 511.359375 C 114.359375 511.359375 103.214844 516.90625 96.105469 521.882812 L 96.105469 640.15625 L 64.832031 640.15625 Z M 64.832031 488.742188 "/>
<path style=" stroke:none;fill-rule:nonzero;fill:rgb(44.313726%,43.921569%,45.09804%);fill-opacity:1;" d="M 299.90625 537.984375 C 299.90625 522.199219 290.621094 507.628906 270.496094 507.628906 C 250.390625 507.628906 241.09375 522.199219 241.09375 537.984375 C 241.09375 553.765625 250.390625 567.6875 270.496094 567.6875 C 290.621094 567.6875 299.90625 553.765625 299.90625 537.984375 M 308.257812 654.101562 C 308.257812 640.484375 299.265625 635.519531 274.511719 634.613281 C 264.007812 634.296875 255.027344 633.648438 251.3125 633.351562 C 242.964844 637.371094 232.753906 643.894531 232.753906 656.601562 C 232.753906 671.113281 247.90625 677.3125 268.632812 677.3125 C 296.195312 677.3125 308.257812 668.640625 308.257812 654.101562 M 203.65625 660.296875 C 203.65625 643.273438 218.515625 632.433594 231.503906 626.839844 C 224.089844 622.808594 218.515625 615.992188 218.515625 604.535156 C 218.515625 592.484375 227.78125 584.132812 235.214844 580.398438 C 219.746094 571.410156 210.765625 556.554688 210.765625 537.984375 C 210.765625 508.230469 233.648438 486.25 270.199219 486.25 C 279.167969 486.25 286.277344 487.503906 293.398438 488.742188 L 343.21875 488.742188 L 343.21875 511.039062 L 319.085938 511.039062 C 326.195312 518.773438 329.929688 528.042969 329.929688 538.898438 C 329.929688 567.085938 307.941406 588.769531 270.199219 588.769531 C 264.3125 588.769531 258.421875 588.179688 253.175781 586.910156 C 249.453125 589.066406 245.4375 593.105469 245.4375 598.335938 C 245.4375 604.535156 249.128906 607.972656 259.664062 608.59375 L 288.761719 610.128906 C 316.921875 611.371094 339.195312 621.597656 339.195312 651.300781 C 339.195312 682.917969 310.726562 699.617188 267.414062 699.617188 C 228.726562 699.617188 203.65625 685.378906 203.65625 660.296875 "/>
<path style=" stroke:none;fill-rule:nonzero;fill:rgb(44.313726%,43.921569%,45.09804%);fill-opacity:1;" d="M 363.429688 488.742188 L 394.386719 488.742188 L 394.386719 504.542969 C 403.664062 493.707031 416.050781 486.25 432.441406 486.25 C 436.796875 486.25 441.738281 487.214844 445.136719 488.101562 L 445.136719 516.285156 C 441.414062 515.371094 436.175781 514.128906 429.351562 514.128906 C 412.328125 514.128906 402.738281 520.039062 394.683594 526.828125 L 394.683594 640.15625 L 363.429688 640.15625 Z M 363.429688 488.742188 "/>
<path style=" stroke:none;fill-rule:nonzero;fill:rgb(44.313726%,43.921569%,45.09804%);fill-opacity:1;" d="M 691.8125 607.644531 L 691.8125 516 C 686.535156 513.832031 678.183594 510.71875 667.953125 510.71875 C 639.804688 510.71875 626.1875 531.792969 626.1875 564.316406 C 626.1875 593.714844 635.472656 617.269531 664.273438 617.269531 C 675.09375 617.269531 685.304688 613.527344 691.8125 607.644531 M 593.082031 565.507812 C 593.082031 521.566406 619.695312 486.246094 663.03125 486.246094 C 677.5625 486.246094 687.480469 489.980469 691.8125 492.148438 L 691.8125 429.609375 L 722.757812 429.609375 L 722.757812 640.15625 L 691.8125 640.15625 L 691.8125 628.097656 C 685.609375 635.21875 672.632812 642.617188 655.273438 642.617188 C 613.820312 642.617188 593.082031 612.292969 593.082031 565.507812 "/>
<path style=" stroke:none;fill-rule:nonzero;fill:rgb(44.313726%,43.921569%,45.09804%);fill-opacity:1;" d="M 754.460938 488.515625 L 785.710938 488.515625 L 785.710938 639.921875 L 754.460938 639.921875 Z M 750.433594 443.304688 C 750.433594 432.761719 758.792969 423.796875 770.242188 423.796875 C 781.371094 423.796875 790.0625 432.761719 790.0625 443.304688 C 790.0625 453.84375 781.371094 462.820312 770.242188 462.820312 C 758.792969 462.820312 750.433594 453.84375 750.433594 443.304688 "/>
<path style=" stroke:none;fill-rule:nonzero;fill:rgb(44.313726%,43.921569%,45.09804%);fill-opacity:1;" d="M 915.609375 564.382812 C 915.609375 536.492188 907.867188 510.175781 878.476562 510.175781 C 849.390625 510.175781 841.945312 536.492188 841.945312 564.382812 C 841.945312 591.949219 849.390625 618.261719 878.792969 618.261719 C 908.183594 618.261719 915.609375 591.949219 915.609375 564.382812 M 809.464844 564.382812 C 809.464844 523.8125 831.136719 486.007812 878.792969 486.007812 C 926.457031 486.007812 947.804688 520.421875 947.804688 564.382812 C 947.804688 604.941406 925.839844 642.390625 878.476562 642.390625 C 831.136719 642.390625 809.464844 608.351562 809.464844 564.382812 "/>
<path style=" stroke:none;fill-rule:nonzero;fill:rgb(44.313726%,43.921569%,45.09804%);fill-opacity:1;" d="M 969.101562 488.511719 L 999.75 488.511719 L 999.75 500.589844 C 1007.480469 494.699219 1021.71875 486.011719 1041.53125 486.011719 C 1078.34375 486.011719 1091.046875 508.964844 1091.046875 539.605469 L 1091.046875 639.917969 L 1059.785156 639.917969 L 1059.785156 544.5625 C 1059.785156 523.476562 1053.589844 511.125 1030.996094 511.125 C 1018.617188 511.125 1007.480469 516.691406 1000.351562 521.644531 L 1000.351562 639.917969 L 969.101562 639.917969 Z M 969.101562 488.511719 "/>
<path style=" stroke:none;fill-rule:nonzero;fill:rgb(44.313726%,43.921569%,45.09804%);fill-opacity:1;" d="M 546.308594 546.367188 L 546.308594 544.796875 C 546.308594 527.441406 536.695312 510.394531 517.199219 510.394531 C 498.945312 510.394531 484.394531 520.632812 481.300781 546.367188 Z M 448.1875 564.601562 C 448.1875 520.335938 473.257812 486.25 517.507812 486.25 C 562.394531 486.25 577.550781 520.039062 577.550781 554.070312 C 577.550781 558.414062 577.246094 562.148438 576.929688 566.777344 L 480.058594 566.777344 C 480.375 597.449219 492.445312 618.167969 524.636719 618.167969 C 542.878906 618.167969 557.433594 614.15625 568.265625 608.886719 L 568.265625 633.980469 C 557.738281 638.324219 540.714844 642.621094 523.070312 642.621094 C 471.394531 642.621094 448.1875 611.054688 448.1875 564.601562 "/>
<path style=" stroke:none;fill-rule:nonzero;fill:rgb(42.352942%,70.19608%,24.705882%);fill-opacity:1;" d="M 426.566406 358.773438 C 487.734375 335.316406 529.558594 286.242188 543.246094 226.628906 C 482.976562 244.507812 437.003906 295.632812 426.566406 358.773438 M 186.472656 130.707031 C 143.167969 279.277344 281.351562 403.789062 417.46875 361.828125 C 422.363281 264.28125 341.878906 130.707031 186.472656 130.707031 M 247.324219 40.984375 C 230.683594 54.425781 216.386719 70.660156 205.210938 89.023438 C 320.984375 102.175781 416.996094 210.046875 424.164062 312.332031 C 430.613281 195.742188 357.089844 82.53125 247.324219 40.984375 M 433.449219 289.484375 C 461.53125 178.738281 418.917969 59.035156 383.636719 1.300781 C 356.894531 -2.855469 321.773438 3.707031 302.898438 10.21875 C 381.164062 67.605469 443.433594 185.625 433.449219 289.484375 M 437.773438 15.953125 C 507.050781 46.394531 553.554688 119.871094 547.214844 201.523438 C 503.003906 209.484375 465.203125 241.042969 443.867188 278.875 C 484.691406 159.78125 455.871094 54.75 437.773438 15.953125 "/>
</g>
</svg>
